<?xml version="1.0" encoding="UTF-8"?><svg id="Layer_1" xmlns="http://www.w3.org/2000/svg" viewBox="0 0 822.81 827.23"><defs><style>.cls-1{fill:#3b7b58;}</style></defs><path class="cls-1" d="M790.5,252.67c-20.72-49.25-50.36-93.48-88.12-131.46-37.77-37.99-81.77-67.82-130.77-88.67C520.86,10.95,466.96,0,411.41,0s-109.45,10.95-160.21,32.54c-49,20.85-92.99,50.68-130.76,88.67-37.76,37.98-67.41,82.21-88.12,131.46C10.87,303.66,0,357.8101,0,413.6201s10.87,109.95,32.32,160.95c20.71,49.25,50.36,93.48,88.12,131.46,37.77,37.99,81.76,67.82,130.76,88.66,50.76,21.59,104.66,32.54,160.21,32.54s109.45-10.95,160.2-32.54c49-20.84,93-50.67,130.77-88.66,37.76-37.98,67.4-82.21,88.12-131.46,21.44-51,32.31-105.15,32.31-160.95s-10.87-109.96-32.31-160.95ZM411.41,767.23c-193.77,0-351.41-158.63-351.41-353.61,0-153.83,98.11-285.02,234.66-333.56,14.2-5.04,28.8-9.2,43.76-12.38,23.55-5.03,47.97-7.6801,72.99-7.6801,193.76,0,351.4,158.63,351.4,353.6201s-157.64,353.61-351.4,353.61Z"/><path class="cls-1" d="M221.86,413.6201c0-68.38,36.39-128.42,90.83-161.76,14.79-9.06,30.92-16.15,48.01-20.9h.01v-61.77c-.01,0-.01,.01-.01,.01-23.11,4.74-45.31,12.73-66.04,23.73-21.72,11.52-41.84,26.36-59.71,44.23-1.68,1.68-3.34,3.39-4.97,5.11-15.39,16.28-28.36,34.28-38.71,53.57-19.21,35.8-29.41,76-29.41,117.78,0,66.65,25.96,129.3199,73.09,176.45,39.59,39.6,90.16,64.25,144.84,71.12v-60.67c-89.52-15.09-157.93-93.16-157.93-186.9Zm366-176.46c-34.21-34.21-76.6-57.26-122.76-67.33-15.66-3.42-31.76-5.34-48.12-5.69v60.01c11.91,.35,23.54,1.79,34.8,4.25,85.18,18.55,149.17,94.55,149.17,185.22,0,92.27-66.28,169.36-153.72,186.14v60.86c53.07-7.58,102.05-31.97,140.63-70.55,47.14-47.13,73.09-109.8,73.09-176.45s-25.95-129.33-73.09-176.46Z"/><path class="cls-1" d="M716.76,284.61c-16.69-39.47-40.59-74.91-71.01-105.33-30.43-30.43-65.87-54.32-105.33-71.01-24.3-10.28-49.4901-17.54-75.32-21.74-15.82-2.58-31.88-4.01-48.12-4.27-1.85-.03-3.71-.05-5.57-.05-10.67,0-21.27,.5-31.78,1.5v60.35c10.42-1.22,21.03-1.85,31.78-1.85,1.86,0,3.72,.02,5.57,.06,16.44,.33,32.52,2.13,48.12,5.28,124.02,24.98,217.71,134.79,217.71,266.07,0,137.5099-102.8,251.46-235.58,269.04v60.45c32.1-3.43,63.32-11.51,93.19-24.14,39.46-16.69,74.9-40.59,105.33-71.01,30.42-30.43,54.32-65.87,71.01-105.33,17.29-40.88,26.05-84.29,26.05-129.0099s-8.7599-88.13-26.05-129.01ZM140,413.6201c0-47.61,12.32-92.4,33.95-131.34,10.77-19.4,23.84-37.34,38.85-53.47,23.15-24.85,50.89-45.3701,81.86-60.1801,20.7-9.91,42.85-17.27,66.04-21.66h.01v-60.91h-.01c-22.55,3.45-44.61,9.23-66.04,17.31-4.11,1.55-8.2,3.18-12.26,4.9-39.47,16.69-74.91,40.58-105.33,71.01-30.43,30.42-54.32,65.86-71.01,105.33-17.29,40.88-26.06,84.28-26.06,129.01s8.77,88.1299,26.06,129.0099c16.69,39.46,40.58,74.9,71.01,105.33,30.42,30.42,65.86,54.32,105.33,71.01,31.17,13.18,63.81,21.41,97.39,24.56v-60.34c-134.82-15.71-239.79-130.61-239.79-269.5699Z"/><path class="cls-1" d="M411.41,251.88c-10.88,0-21.5,1.08-31.78,3.14v61.94c.05-.02,.11-.03,.16-.05,9.96-3.26,20.59-5.03,31.62-5.03,12.6,0,24.67,2.3,35.82,6.52v-62.52c-11.52-2.62-23.51-4-35.82-4Zm54.76,9.55v66.48c28.23,18.1,46.97,49.76,46.97,85.71,0,43.49-27.44,80.69-65.91,95.21-11.15,4.22-23.22,6.52-35.82,6.52-11.03,0-21.66-1.77-31.62-5.03-40.67-13.33-70.12-51.64-70.12-96.7,0-37.65,20.55-70.58,51.03-88.17v-65.42c-64.42,21.32-111.03,82.12-111.03,153.59,0,78.36,56.02,143.8799,130.12,158.62,10.23,2.04,20.8,3.11,31.62,3.11,12.31,0,24.3-1.38,35.82-4,72-16.34,125.91-80.86,125.91-157.73,0-69.97-44.66-129.71-106.97-152.19Z"/><path class="cls-1" d="M338.42,67.6801c-14.96,3.18-29.56,7.34-43.76,12.38v-12.38h43.76Z"/><path class="cls-1" d="M360.71,86.0601V230.96h-.01c-17.09,4.75-33.22,11.84-48.01,20.9h-18.03V103.3701c21.43-8.08,43.49-13.86,66.04-17.31h.01Z"/><polygon class="cls-1" points="273.46 276.33 232.73 328.32 191.27 295.84 173.95 282.28 132.03 249.44 172.77 197.44 212.8 228.8101 229.98 242.27 273.46 276.33"/><polygon class="cls-1" points="465.1 71.66 465.1 228.4 451.78 228.4 416.98 224.15 416.98 71.66 465.1 71.66"/><path class="cls-1" d="M360.71,86.0601V230.96h-.01V86.0601h.01Z"/><path class="cls-1" d="M447.23,276.05v295.3c-11.52,2.62-23.51,4-35.82,4-10.82,0-21.39-1.07-31.62-3.11V276.05h67.44Z"/></svg>